<svg xmlns="http://www.w3.org/2000/svg" xmlns:xlink="http://www.w3.org/1999/xlink" width="192" height="118.367" viewBox="0 0 192 118.367">
  <defs>
    <clipPath id="clip-path">
      <rect id="Rectangle_20282" data-name="Rectangle 20282" width="180.273" height="118.367" fill="none"/>
    </clipPath>
    <clipPath id="clip-path-3">
      <path id="Path_146936" data-name="Path 146936" d="M135.466,0a36.473,36.473,0,0,0-4.793.312C104.355,3.8,99.378,13.131,94.828,17.826c0,0-26.6-9.042-45.74,5.01S20.943,67.309,35.279,85.643C53.4,108.819,152.915,96.935,163.286,95.635s27.875-12.759,26.282-45.982C188.376,24.776,160.664.007,135.49,0Z" transform="translate(-28.232 0.004)" fill="none"/>
    </clipPath>
    <clipPath id="clip-path-4">
      <rect id="Rectangle_20229" data-name="Rectangle 20229" width="47.639" height="7.567" fill="none"/>
    </clipPath>
    <clipPath id="clip-path-5">
      <path id="Path_146928" data-name="Path 146928" d="M1295.057,503.7v7.567h-43.445l-4.194-7.567Z" transform="translate(-1247.418 -503.703)" fill="none" clip-rule="evenodd"/>
    </clipPath>
    <linearGradient id="linear-gradient" x1="-12.408" y1="1.829" x2="-12.399" y2="1.829" gradientUnits="objectBoundingBox">
      <stop offset="0" stop-color="#191c1f"/>
      <stop offset="0.999" stop-color="#747b80"/>
      <stop offset="1" stop-color="#747b80"/>
    </linearGradient>
    <clipPath id="clip-path-6">
      <rect id="Rectangle_20231" data-name="Rectangle 20231" width="21.847" height="36.308" fill="none"/>
    </clipPath>
    <clipPath id="clip-path-7">
      <path id="Path_146930" data-name="Path 146930" d="M856.405,177.31l-21.734,32.051-.113-7.908,19.151-28.4Z" transform="translate(-834.558 -173.053)" fill="none" clip-rule="evenodd"/>
    </clipPath>
    <linearGradient id="linear-gradient-2" x1="-1.833" y1="2.495" x2="-1.831" y2="2.495" xlink:href="#linear-gradient"/>
    <clipPath id="clip-path-9">
      <path id="Path_146950" data-name="Path 146950" d="M1292.527,638.473c-.353.744-.527,1.146-.5.89.168-1.4.274-2.539-3.092-4.889a4.313,4.313,0,0,0-1.947-.734c-3.279-.423-7.283,2.38-7.683,5.1a17.353,17.353,0,0,0,.381,6.359,18.81,18.81,0,0,0,.757,2.484,3.476,3.476,0,0,0-1.319-1.59c-2.865-1.87-8.465.252-10.14,2.305a14.791,14.791,0,0,0-2.332,4.057c-.97,2.611-1.029,5.473,1.352,7.235a8.352,8.352,0,0,0,3.137,1.323c1.232.288,2.521.44,3.724.707,4.028.9,7.623,1.777,11.759,1.361,4.526-.456,9.051-.933,13.584-1.317,3.882-.328,8.344-.772,10.957-4.07a6.551,6.551,0,0,0,1.469-5.339,4.06,4.06,0,0,0-1.864-2.54,8.579,8.579,0,0,0-7.85-.242q-.294.122-.579.26c1.239-.6,2.6-4.411,3.111-5.645a15.076,15.076,0,0,0,1.324-6.39,7,7,0,0,0-4.078-5.979,10.048,10.048,0,0,0-2.028-.749,3.63,3.63,0,0,0-.906-.116c-3.533,0-6.184,5.287-7.242,7.515" transform="translate(-1266.027 -630.958)" fill="none"/>
    </clipPath>
    <clipPath id="clip-path-11">
      <rect id="Rectangle_20237" data-name="Rectangle 20237" width="23.625" height="27.426" fill="none"/>
    </clipPath>
    <clipPath id="clip-path-12">
      <rect id="Rectangle_20238" data-name="Rectangle 20238" width="46.738" height="10.831" fill="none"/>
    </clipPath>
    <clipPath id="clip-path-13">
      <rect id="Rectangle_20239" data-name="Rectangle 20239" width="5.534" height="17.441" fill="none"/>
    </clipPath>
    <clipPath id="clip-path-14">
      <rect id="Rectangle_20240" data-name="Rectangle 20240" width="8.727" height="9.026" fill="none"/>
    </clipPath>
    <clipPath id="clip-path-15">
      <path id="Path_146974" data-name="Path 146974" d="M22.162,586.746c-2.049,3.765,4.456,9.821-1.163,6.555-7.411-4.307-13.581,1.594-14.54,6.375-.488,2.434,1.462,5.613,1.462,5.613C4.049,603.578-2.511,610.234,1,616.045c2.639,4.363,6.3,5.832,10.512,4.422,2.448-.82,12.5-.568,18.967-.316,3.239.126,5.577.253,5.605.244,13.258-3.8,26.341-20.561,11.094-17.8a6.141,6.141,0,0,0-7.753-7.758c1.716-6.5-.948-11.379-6.77-12.111a16.55,16.55,0,0,0-2.058-.131c-3.3,0-6.747,1.047-8.438,4.154" transform="translate(-0.001 -582.591)" fill="none"/>
    </clipPath>
    <clipPath id="clip-path-16">
      <rect id="Rectangle_20242" data-name="Rectangle 20242" width="10.889" height="19.529" fill="none"/>
    </clipPath>
    <clipPath id="clip-path-17">
      <rect id="Rectangle_20243" data-name="Rectangle 20243" width="9.853" height="27.402" fill="none"/>
    </clipPath>
    <clipPath id="clip-path-18">
      <rect id="Rectangle_20244" data-name="Rectangle 20244" width="53.564" height="17.715" fill="none"/>
    </clipPath>
    <clipPath id="clip-path-20">
      <path id="Path_146977" data-name="Path 146977" d="M42.146,874.706c0,7.72,34.949,13.979,78.06,13.979s78.06-6.258,78.06-13.979-34.949-13.979-78.06-13.979-78.06,6.258-78.06,13.979" transform="translate(-42.146 -860.727)" fill="none"/>
    </clipPath>
    <clipPath id="clip-path-22">
      <rect id="Rectangle_20247" data-name="Rectangle 20247" width="14.811" height="1.459" fill="none"/>
    </clipPath>
    <clipPath id="clip-path-23">
      <path id="Path_146981" data-name="Path 146981" d="M176.257,1033.423c1.181.985-3.992.952-10.863.5s-3.57-.941,3.478-1.143c3.505-.1,6.961.286,7.384.639" transform="translate(-161.615 -1032.768)" fill="none" clip-rule="evenodd"/>
    </clipPath>
    <linearGradient id="linear-gradient-3" x1="-3.212" y1="1.23" x2="-3.195" y2="1.23" gradientUnits="objectBoundingBox">
      <stop offset="0" stop-color="#191c1f"/>
      <stop offset="0.556" stop-color="#4a4f53"/>
      <stop offset="0.999" stop-color="#747b80"/>
      <stop offset="1" stop-color="#747b80"/>
    </linearGradient>
    <clipPath id="clip-path-24">
      <path id="Path_146985" data-name="Path 146985" d="M281.2,928.321c.15.857,1.015,5.226,1.261,6.414a10.3,10.3,0,0,1,.379,3.619c-.2.726-.538.862.091.767s2.721-.005,2.008-.256a1.371,1.371,0,0,1-1.041-1.357c.05-.552.768-8.45.847-8.982.049-.329-1.376-.658-2.435-.657-.653,0-1.167.125-1.11.452" transform="translate(-281.195 -927.869)" fill="none"/>
    </clipPath>
    <clipPath id="clip-path-26">
      <path id="Path_146988" data-name="Path 146988" d="M176.048,937.3c-.579.454-.883,1.3-1.785,2.983a11.808,11.808,0,0,1-2.169,3.291c-.494.365-1.035.163-.509.851s1.214,1.9,1.1,1.131c-.064-.438-.1-.393-.064-.536a2.52,2.52,0,0,1,.513-.8c.241-.286,4.591-4.6,5.028-5.126s.3-.79.429-1.909c.047-.424-.223-.576-.609-.576a4,4,0,0,0-1.938.691" transform="translate(-171.371 -936.612)" fill="none"/>
    </clipPath>
    <clipPath id="clip-path-28">
      <path id="Path_146993" data-name="Path 146993" d="M247.556,880.75c.52.4,1.185,4.369,1.439,5.337a16.138,16.138,0,0,1,.36,1.719,9.4,9.4,0,0,0,5.178-1.61,2.845,2.845,0,0,0-.488-1.564c-.285-.568-1.492-2.712-1.761-3.248-.2-.4-3.021-.78-4.226-.78-.411,0-.635.044-.5.147" transform="translate(-247.518 -880.603)" fill="none"/>
    </clipPath>
    <clipPath id="clip-path-30">
      <path id="Path_146996" data-name="Path 146996" d="M212.123,872.865a3.981,3.981,0,0,0-.587,2.317c-.019.833-.433,4.835-.433,4.835.192.742,4.779,1.156,4.9.334.36.179.117-5.669-.122-7.2-.1-.639-.807-.856-1.586-.856a3.8,3.8,0,0,0-2.168.572" transform="translate(-211.103 -872.293)" fill="none"/>
    </clipPath>
    <clipPath id="clip-path-31">
      <path id="Path_146997" data-name="Path 146997" d="M219.134,780.553a3.415,3.415,0,0,0-1.577.808c-.445.549-.537,4.631-.453,5.768a8.678,8.678,0,0,1-.579,3.742,2.089,2.089,0,0,1,1.892.088c.883.572,5.445,1.265,5.992.395a9.575,9.575,0,0,1-.644-2.4,73.529,73.529,0,0,0-1.962-8.292,14.218,14.218,0,0,0-2.105-.154,2.028,2.028,0,0,0-.564.046" transform="translate(-216.526 -780.507)" fill="none"/>
    </clipPath>
    <linearGradient id="linear-gradient-4" x1="-1.323" y1="3.146" x2="-1.316" y2="3.146" gradientUnits="objectBoundingBox">
      <stop offset="0" stop-color="#ececec"/>
      <stop offset="1" stop-color="#fff"/>
    </linearGradient>
    <clipPath id="clip-path-33">
      <path id="Path_146999" data-name="Path 146999" d="M339.951,790.744l4.435-.433.363-8.821-4.982-.107Z" transform="translate(-339.767 -781.382)" fill="none"/>
    </clipPath>
    <linearGradient id="linear-gradient-5" x1="-3.817" y1="3.813" x2="-3.805" y2="3.813" gradientUnits="objectBoundingBox">
      <stop offset="0" stop-color="#e4be5b"/>
      <stop offset="0.337" stop-color="#e4c065"/>
      <stop offset="0.999" stop-color="#e4c575"/>
      <stop offset="1" stop-color="#e4c575"/>
    </linearGradient>
    <clipPath id="clip-path-35">
      <path id="Path_147003" data-name="Path 147003" d="M233.571,824.154a17.343,17.343,0,0,0,3.885,1.914,19.808,19.808,0,0,0,3.862.256c.753-.019.883.011,1.307-.211s1.254-.638,1.232-.809c-.029-.216-.433.107-.921.222-.165.038-1.156.208-.616-.054,1.292-.627.1-.3-.688-.077s-2.955-.79-3.785-1.259a14.317,14.317,0,0,1-2.065-1.316.368.368,0,0,0-.246-.071c-.717,0-2.359,1.024-1.965,1.4" transform="translate(-233.511 -822.749)" fill="none"/>
    </clipPath>
    <clipPath id="clip-path-37">
      <path id="Path_147007" data-name="Path 147007" d="M242.46,768.32l0,0,0,0m.394-1.171c.076.375-.321,1.243-.394,1.171a1.614,1.614,0,0,0,1.01.523.707.707,0,0,0,.694-.527,1.924,1.924,0,0,1-.478-1.021.527.527,0,0,0-.523-.393c-.186,0-.34.094-.309.247" transform="translate(-242.458 -766.902)" fill="none"/>
    </clipPath>
    <clipPath id="clip-path-39">
      <rect id="Rectangle_20258" data-name="Rectangle 20258" width="21.863" height="2.287" fill="none"/>
    </clipPath>
    <clipPath id="clip-path-40">
      <path id="Path_147009" data-name="Path 147009" d="M337.334,1034.674c-.915,1.427-21.032-.31-21.8-1.238s22.989-.615,21.8,1.238" transform="translate(-315.514 -1032.929)" fill="none" clip-rule="evenodd"/>
    </clipPath>
    <linearGradient id="linear-gradient-6" x1="-5.81" y1="1.045" x2="-5.795" y2="1.045" xlink:href="#linear-gradient-3"/>
    <clipPath id="clip-path-41">
      <path id="Path_147013" data-name="Path 147013" d="M379.554,993.247a7.32,7.32,0,0,1-1.146,1.388c-.405.319-.577.454-.782.59s.119.425.289,1.164a4.973,4.973,0,0,0,.986,2.082c.431.449.042-.78-.009-1.2s-.274-1.422.032-1.9a6.365,6.365,0,0,1,1.342-1.383c.139-.044-.36-.8-.617-.8a.108.108,0,0,0-.094.053" transform="translate(-377.559 -993.194)" fill="none"/>
    </clipPath>
    <clipPath id="clip-path-43">
      <path id="Path_147018" data-name="Path 147018" d="M396.6,704.127c-.632.549.168,1.47.381,2.2s2.453,15.545.836,16.432-2.479,3.98-2.9,5c-.509,1.227-2.743,5.8-2.743,5.8.122.437.819.63.819.63,1.367-.849,7.553-7.977,8.713-10.689s.657-12.374.016-13.891a34.047,34.047,0,0,0-3.552-5.311,1.216,1.216,0,0,0-.866-.477,1.077,1.077,0,0,0-.7.307" transform="translate(-392.174 -703.82)" fill="none"/>
    </clipPath>
    <clipPath id="clip-path-45">
      <path id="Path_147021" data-name="Path 147021" d="M504.488,1014.973a7.312,7.312,0,0,1,.567,1.709c.055.513.078.73.083.976s.423.125,1.139.374a4.973,4.973,0,0,0,2.287.272c.609-.126-.638-.451-1.02-.63s-1.35-.524-1.589-1.036a6.355,6.355,0,0,1-.458-1.871c.015-.059-.132-.089-.319-.089-.329,0-.781.094-.69.3" transform="translate(-504.476 -1014.677)" fill="none"/>
    </clipPath>
    <clipPath id="clip-path-47">
      <path id="Path_147023" data-name="Path 147023" d="M395.381,630.116a3.3,3.3,0,0,0-1.611.36c-.4.309-.018,1.411.134,1.868s1.26,3.152,1.468,3.861a4.426,4.426,0,0,1,.08,2.159s3.706.6,4.083-.059-.043-6.977-.043-6.977a10.938,10.938,0,0,0-2.036-1.217,5.862,5.862,0,0,0-.891-.046,11.726,11.726,0,0,0-1.185.052" transform="translate(-393.591 -630.064)" fill="none"/>
    </clipPath>
    <linearGradient id="linear-gradient-7" x1="-3.379" y1="5.475" x2="-3.37" y2="5.475" gradientUnits="objectBoundingBox">
      <stop offset="0" stop-color="#f85144"/>
      <stop offset="1" stop-color="#f86255"/>
    </linearGradient>
    <clipPath id="clip-path-49">
      <rect id="Rectangle_20264" data-name="Rectangle 20264" width="5.185" height="2.05" fill="none"/>
    </clipPath>
    <clipPath id="clip-path-50">
      <path id="Path_147031" data-name="Path 147031" d="M523.516,637.644l4.664-.476.382-9.694-5.24-.118Z" transform="translate(-523.323 -627.356)" fill="none"/>
    </clipPath>
    <linearGradient id="linear-gradient-8" x1="-4.294" y1="5.655" x2="-4.285" y2="5.655" xlink:href="#linear-gradient-5"/>
    <clipPath id="clip-path-52">
      <path id="Path_147035" data-name="Path 147035" d="M409.277,663.839c.478.31,3.437,1.83,5.114,2.6a13.218,13.218,0,0,0,2.684.88,4.488,4.488,0,0,0,1.348.408,5.57,5.57,0,0,0,1.625-.382c.3-.182-.149-.141-1.025-.27s-.955-.235-.707-.293,1.076-.337.43-.284a6.928,6.928,0,0,1-.976.049,2.307,2.307,0,0,1-1.467-.477c-.6-.4-1.27-.956-2.38-1.873-1.465-1.209-2.911-2.648-2.911-2.648a.076.076,0,0,0-.055-.019c-.411,0-2.236,1.954-1.681,2.313" transform="translate(-409.173 -661.526)" fill="none"/>
    </clipPath>
    <clipPath id="clip-path-54">
      <path id="Path_147039" data-name="Path 147039" d="M412.23,611.5c.021.234.046,1.243-.206,1.5a1.207,1.207,0,0,1-.641.368,8.4,8.4,0,0,0,1.084,1.195c.884.7,1.478.088,1.55-.173s-.045-.429-.392-.825a1.682,1.682,0,0,1-.531-1.321c.05-.417-.571-.8-.79-.8-.049,0-.078.019-.074.062" transform="translate(-411.382 -611.442)" fill="none"/>
    </clipPath>
    <clipPath id="clip-path-57">
      <path id="Path_147041" data-name="Path 147041" d="M603.791,1054.876c-.915,1.427-21.032-.31-21.8-1.239s22.989-.615,21.8,1.239" transform="translate(-581.971 -1053.132)" fill="none" clip-rule="evenodd"/>
    </clipPath>
    <linearGradient id="linear-gradient-9" x1="-9.755" y1="0.961" x2="-9.74" y2="0.961" xlink:href="#linear-gradient-3"/>
    <clipPath id="clip-path-58">
      <path id="Path_147045" data-name="Path 147045" d="M732.362,643.82c-.094.512-.6.636-1.38,1.131s-4.276,2.173-4.916,1.933-1.764.8-1.436,1.067a6.847,6.847,0,0,0,2.412,1.15c.5-.042,4.654-3.662,4.914-3.8a6.806,6.806,0,0,0,.785-.574,1.68,1.68,0,0,0,.165-.809c-.01-.574-.1-.836-.213-.836s-.242.262-.33.737" transform="translate(-724.571 -643.083)" fill="none"/>
    </clipPath>
    <clipPath id="clip-path-60">
      <path id="Path_147050" data-name="Path 147050" d="M669.684,716c-.793.782-.478,5.3.074,6.287s5.807,9.759,6.415,10.891,4.017,16.031,4.67,16.172a18.826,18.826,0,0,0,3.264-.227c-.117-.819-2.959-17.6-3.192-18.484s-5.847-12.685-6.567-14.131a2.77,2.77,0,0,0-2.539-1.094,3.348,3.348,0,0,0-2.124.587" transform="translate(-669.206 -715.415)" fill="none"/>
    </clipPath>
    <clipPath id="clip-path-62">
      <path id="Path_147053" data-name="Path 147053" d="M562.772,715.66c-.561,1.195-1.478,13.6-1.786,16.064s-7.74,10.4-7.251,11.139,2.971,3.561,2.971,3.561c.853-.643,9.684-13.179,9.8-14.164s1.761-15.5,1.679-16.511c-.043-.547-1.457-.878-2.835-.878-1.17,0-2.316.239-2.573.788" transform="translate(-553.712 -714.872)" fill="none"/>
    </clipPath>
    <clipPath id="clip-path-64">
      <path id="Path_147058" data-name="Path 147058" d="M642.224,588.389c-.523.419-1.332,12.823-1.084,13.581s8.025.867,8.732.654c0,0-.745-9.837-.84-10.557s-.216-3.027-.856-3.442a7.678,7.678,0,0,0-3.067-.694c-.12,0-.321-.008-.564-.008a4.306,4.306,0,0,0-2.321.466" transform="translate(-641.094 -587.923)" fill="none"/>
    </clipPath>
    <clipPath id="clip-path-66">
      <path id="Path_147067" data-name="Path 147067" d="M605.372,647.008a7.759,7.759,0,0,0-.622,3.757c.094,1.129,3.785,5.938,4.267,6.526a5.321,5.321,0,0,1,.8,1.2c.264.454,1.321-.283,1.447-.784s-.6-.406-1.372-1.457a36.828,36.828,0,0,1-2.813-5.674c-.237-1.23.56-1.813,1.222-2.613.477-.576-.955-1.4-2.008-1.4a.954.954,0,0,0-.925.446" transform="translate(-604.726 -646.562)" fill="none"/>
    </clipPath>
    <clipPath id="clip-path-68">
      <path id="Path_147071" data-name="Path 147071" d="M676.1,570.835c.11.366-.652,1.612-.652,1.612a1.256,1.256,0,0,0,.95.772c.539.057.908-.626.908-.626a1.473,1.473,0,0,1-.258-1.135c.012-.334-.626-.742-.866-.742-.071,0-.108.036-.082.12" transform="translate(-675.451 -570.715)" fill="none"/>
    </clipPath>
    <clipPath id="clip-path-70">
      <path id="Path_147074" data-name="Path 147074" d="M1266.051,784.158l7.958-.663.938-16.655-8.92-.378Z" transform="translate(-1266.027 -766.462)" fill="none"/>
    </clipPath>
    <linearGradient id="linear-gradient-10" x1="-6.173" y1="2.675" x2="-6.168" y2="2.675" xlink:href="#linear-gradient-5"/>
    <clipPath id="clip-path-72">
      <path id="Path_147077" data-name="Path 147077" d="M1128.284,846.859l7.741-.483.856-12.914-8.681-.328Z" transform="translate(-1128.2 -833.134)" fill="none"/>
    </clipPath>
    <linearGradient id="linear-gradient-11" x1="-13.072" y1="2.519" x2="-13.06" y2="2.519" xlink:href="#linear-gradient-5"/>
  </defs>
  <g id="Group_57731" data-name="Group 57731" transform="translate(-124 -1389.316)">
    <ellipse id="Ellipse_1579" data-name="Ellipse 1579" cx="32" cy="33" rx="32" ry="33" transform="translate(252 1434)" fill="#dfdaf8"/>
    <ellipse id="Ellipse_1580" data-name="Ellipse 1580" cx="16" cy="17.5" rx="16" ry="17.5" transform="translate(124 1467)" fill="#dfdaf8"/>
    <g id="Group_57729" data-name="Group 57729" transform="translate(131 1389.316)">
      <g id="Group_57728" data-name="Group 57728" clip-path="url(#clip-path)">
        <g id="Group_57572" data-name="Group 57572" transform="translate(0 0)">
          <g id="Group_57571" data-name="Group 57571" clip-path="url(#clip-path)">
            <path id="Path_146919" data-name="Path 146919" d="M163.286,95.636c10.371-1.3,27.875-12.759,26.282-45.982C188.3,23.175,156.992-3.18,130.673.309S99.379,13.132,94.829,17.827c0,0-26.6-9.042-45.74,5.01S20.943,67.31,35.279,85.643C53.4,108.82,152.915,96.936,163.286,95.636" transform="translate(-25.393 0.003)" fill="#d5ecff" fill-rule="evenodd"/>
          </g>
        </g>
        <g id="Group_57584" data-name="Group 57584" transform="translate(2.84 0)">
          <g id="Group_57583" data-name="Group 57583" clip-path="url(#clip-path-3)">
            <path id="Path_146920" data-name="Path 146920" d="M86.891,248.929c2.729-.667,5.037.269,6.675-1.325s10.423-4.234,12.492-3.875c0,0-2.63-2.93.038-10.039s15.344-7.7,12.85,6.394a34.475,34.475,0,0,0,3.984-.241c3.378-.3,4.058-.735,3.23,3.3s-1.6,5.238,5.967,5.521-15.843.113-18.7.163c-2.3.04-29.265.769-26.535.1" transform="translate(-80.817 -205.774)" fill="#fff" fill-rule="evenodd"/>
            <path id="Path_146921" data-name="Path 146921" d="M472.426,273.417a1.854,1.854,0,1,1-1.863,1.854,1.858,1.858,0,0,1,1.863-1.854" transform="translate(-426.073 -245.916)" fill="#fff" fill-rule="evenodd"/>
            <rect id="Rectangle_20224" data-name="Rectangle 20224" width="3.796" height="4.207" transform="translate(38.61 59.513)" fill="#5899d6"/>
            <path id="Path_146922" data-name="Path 146922" d="M451.847,451.571V422.848l-13.181-20.805L425.6,421.421l.429,29.992Z" transform="translate(-385.632 -361.604)" fill="#a9d3f9" fill-rule="evenodd"/>
            <path id="Path_146923" data-name="Path 146923" d="M396.137,358.73l-14.262,22.607-3.442-.047,17.759-28.151,17.228,28.611-3.42,0Z" transform="translate(-343.209 -317.621)" fill="#80b6e9" fill-rule="evenodd"/>
            <path id="Path_146924" data-name="Path 146924" d="M572.228,381.723l35.49.06L585.9,353.109l-30.9,0s16.9,28.654,17.227,28.611" transform="translate(-502.018 -317.593)" fill="#75aee3" fill-rule="evenodd"/>
            <rect id="Rectangle_20225" data-name="Rectangle 20225" width="4.369" height="4.842" transform="translate(57.165 54.06)" fill="#3579b6"/>
            <path id="Path_146925" data-name="Path 146925" d="M642.326,376.215V343.157l-15.171-23.946-15.039,22.3.493,34.519Z" transform="translate(-553.388 -287.104)" fill="#9cc9f3" fill-rule="evenodd"/>
            <path id="Path_146926" data-name="Path 146926" d="M578.206,269.361l-16.415,26.02-3.961-.054,20.439-32.4L598.1,295.856l-3.936,0Z" transform="translate(-504.562 -236.481)" fill="#5899d6" fill-rule="evenodd"/>
            <path id="Path_146927" data-name="Path 146927" d="M780.877,295.824l40.847.069-25.108-33-35.566,0s19.455,32.979,19.827,32.93" transform="translate(-687.343 -236.449)" fill="#4e8eca" fill-rule="evenodd"/>
            <rect id="Rectangle_20226" data-name="Rectangle 20226" width="5.563" height="6.165" transform="translate(79.112 45.36)" fill="#1f4c77"/>
            <rect id="Rectangle_20227" data-name="Rectangle 20227" width="50.699" height="45.043" transform="translate(119.567 50.663)" fill="#e95149"/>
            <g id="Group_57577" data-name="Group 57577" transform="translate(122.627 50.663)" style="mix-blend-mode: overlay;isolation: isolate">
              <g id="Group_57576" data-name="Group 57576">
                <g id="Group_57575" data-name="Group 57575" clip-path="url(#clip-path-4)">
                  <g id="Group_57574" data-name="Group 57574" transform="translate(0)">
                    <g id="Group_57573" data-name="Group 57573" clip-path="url(#clip-path-5)">
                      <rect id="Rectangle_20228" data-name="Rectangle 20228" width="11.566" height="48.108" transform="translate(-0.637 7.513) rotate(-85.152)" fill="url(#linear-gradient)"/>
                    </g>
                  </g>
                </g>
              </g>
            </g>
            <path id="Path_146929" data-name="Path 146929" d="M873.025,203.543v42.094l-37.839-.229-.516-36.047-.113-7.908,19.151-28.4,2.7,4.257Z" transform="translate(-753.457 -155.646)" fill="#f97167" fill-rule="evenodd"/>
            <g id="Group_57582" data-name="Group 57582" transform="translate(81.101 17.406)" style="mix-blend-mode: overlay;isolation: isolate">
              <g id="Group_57581" data-name="Group 57581">
                <g id="Group_57580" data-name="Group 57580" clip-path="url(#clip-path-6)">
                  <g id="Group_57579" data-name="Group 57579" transform="translate(0 0)">
                    <g id="Group_57578" data-name="Group 57578" clip-path="url(#clip-path-7)">
                      <rect id="Rectangle_20230" data-name="Rectangle 20230" width="40.662" height="41.511" transform="translate(-18.091 16.647) rotate(-42.62)" fill="url(#linear-gradient-2)"/>
                    </g>
                  </g>
                </g>
              </g>
            </g>
            <rect id="Rectangle_20232" data-name="Rectangle 20232" width="14.602" height="32.933" transform="translate(92.557 54.885)" fill="#286499"/>
            <rect id="Rectangle_20233" data-name="Rectangle 20233" width="12.622" height="6.983" transform="translate(93.489 56.371)" fill="#89bded"/>
            <path id="Path_146931" data-name="Path 146931" d="M1067.93,709.834a.641.641,0,1,1-.641.641.641.641,0,0,1,.641-.641" transform="translate(-962.78 -638.438)" fill="#3579b6" fill-rule="evenodd"/>
            <path id="Path_146932" data-name="Path 146932" d="M791.385,109.575l-20.9,33.132-5.044-.068,26.026-41.256,25.248,41.93-5.012,0Z" transform="translate(-691.29 -91.185)" fill="#3579b6" fill-rule="evenodd"/>
            <path id="Path_146933" data-name="Path 146933" d="M1049.45,143.272l52.012.087-31.971-42.022-45.287,0s24.772,41.993,25.246,41.93" transform="translate(-924.028 -91.144)" fill="#316fa7" fill-rule="evenodd"/>
            <path id="Path_146934" data-name="Path 146934" d="M989.611,307.857a3.457,3.457,0,0,0-3.459-3.459h-.106a3.459,3.459,0,0,0-3.459,3.459v12.06h7.025Z" transform="translate(-886.596 -273.781)" fill="#286499" fill-rule="evenodd"/>
            <path id="Path_146935" data-name="Path 146935" d="M996.717,321.355a2.538,2.538,0,0,0-2.541-2.541h-.036a2.538,2.538,0,0,0-2.541,2.541Z" transform="translate(-894.703 -286.747)" fill="#89bded" fill-rule="evenodd"/>
            <rect id="Rectangle_20234" data-name="Rectangle 20234" width="5.119" height="9.366" transform="translate(96.896 35.644)" fill="#89bded"/>
          </g>
        </g>
        <g id="Group_57586" data-name="Group 57586" transform="translate(0 0)">
          <g id="Group_57585" data-name="Group 57585" clip-path="url(#clip-path)">
            <rect id="Rectangle_20235" data-name="Rectangle 20235" width="7.304" height="20.997" transform="translate(144.79 7.77)" fill="#e95149"/>
            <path id="Path_146937" data-name="Path 146937" d="M1378.549,98.245v-21l-6.74.069-.079,12.952Z" transform="translate(-1233.761 -69.478)" fill="#f97167" fill-rule="evenodd"/>
          </g>
        </g>
        <g id="Group_57588" data-name="Group 57588" transform="translate(127.338 63.462)">
          <g id="Group_57587" data-name="Group 57587" clip-path="url(#clip-path-9)">
            <path id="Path_146938" data-name="Path 146938" d="M1311.169,657.7c-2.613,3.3-7.075,3.742-10.957,4.07-4.533.383-9.058.861-13.584,1.317-4.136.416-7.731-.463-11.759-1.361-1.2-.268-2.493-.419-3.725-.707a8.35,8.35,0,0,1-3.137-1.323c-2.381-1.762-2.322-4.624-1.352-7.235a14.785,14.785,0,0,1,2.333-4.057c1.675-2.053,7.275-4.175,10.139-2.305a3.478,3.478,0,0,1,1.32,1.59,18.748,18.748,0,0,1-.757-2.484,17.357,17.357,0,0,1-.381-6.359c.4-2.724,4.4-5.527,7.683-5.1a4.313,4.313,0,0,1,1.947.734c3.366,2.351,3.26,3.489,3.092,4.889-.031.255.143-.146.5-.89,1.147-2.415,4.164-8.422,8.148-7.4a10.039,10.039,0,0,1,2.028.749,7,7,0,0,1,4.078,5.979,15.08,15.08,0,0,1-1.324,6.39c-.508,1.233-1.872,5.048-3.111,5.645q.285-.137.579-.26a8.578,8.578,0,0,1,7.85.242,4.059,4.059,0,0,1,1.864,2.54,6.551,6.551,0,0,1-1.469,5.339" transform="translate(-1266.026 -630.959)" fill="#639142" fill-rule="evenodd"/>
            <path id="Path_146939" data-name="Path 146939" d="M1438.291,644.219a65.874,65.874,0,0,0-1.7-27.957,44.864,44.864,0,0,0-2.624-7.444c-.006-.012-.143.046-.137.064.742,2.244,1.545,4.469,2.2,6.741a69.738,69.738,0,0,1,1.589,6.8,70.534,70.534,0,0,1,1.127,13.994c-.052,2.612-.23,5.225-.5,7.823,0,0,.049-.01.051-.024" transform="translate(-1416.952 -611.043)" fill="#88c75b"/>
            <path id="Path_146940" data-name="Path 146940" d="M1515.351,668.859a37.023,37.023,0,0,1,1.28-8.182,48.181,48.181,0,0,1,3.016-7.872A43.11,43.11,0,0,1,1528,640.982a41.33,41.33,0,0,1,6.326-5.187c.11-.073-.185.044-.225.069a40.417,40.417,0,0,0-17.767,23.885,30.428,30.428,0,0,0-1.107,9.166s.118-.028.12-.056" transform="translate(-1490.141 -635.287)" fill="#88c75b"/>
            <path id="Path_146941" data-name="Path 146941" d="M1301.535,749.076A16.43,16.43,0,0,0,1303,754.93a21.031,21.031,0,0,0,7.887,8.843,28.751,28.751,0,0,0,2.683,1.212c.905.406,1.8.835,2.677,1.3a45.867,45.867,0,0,1,5.831,3.693c.041.03.219-.106.222-.1a25.051,25.051,0,0,0-4.863-3.451c-1.762-.981-3.614-1.718-5.43-2.579a17.379,17.379,0,0,1-4.655-3.6,20.852,20.852,0,0,1-3.535-4.824,22.081,22.081,0,0,1-2.23-6.363s-.052.014-.051.024" transform="translate(-1297.964 -737.174)" fill="#88c75b"/>
            <path id="Path_146942" data-name="Path 146942" d="M1479.588,669.02a35.082,35.082,0,0,1-1.121,5.479,29.442,29.442,0,0,1-2.216,5.239c.011-.02.265-.052.31-.13a22.433,22.433,0,0,0,3.087-10.616s-.058.013-.06.028" transform="translate(-1455.106 -665.167)" fill="#88c75b"/>
            <path id="Path_146943" data-name="Path 146943" d="M1425.453,759.318a12.545,12.545,0,0,0,2.1,4.334,12,12,0,0,0,1.606,1.768,6.946,6.946,0,0,0,1.927,1.389.135.135,0,0,0,.058-.029,5.892,5.892,0,0,0-.9-.819q-.406-.366-.783-.763a19.272,19.272,0,0,1-1.537-1.8,18.11,18.11,0,0,1-2.288-4.16c-.005-.014-.186.057-.179.084" transform="translate(-1409.418 -746.331)" fill="#88c75b"/>
            <path id="Path_146944" data-name="Path 146944" d="M1563.074,693.1c.143-.9.061-1.831.142-2.737a23.913,23.913,0,0,1,.372-2.658,27.656,27.656,0,0,1,1.7-5.161c0,.005-.131.028-.151.063a17.158,17.158,0,0,0-1.87,5.089,18.627,18.627,0,0,0-.368,2.642,7.827,7.827,0,0,0,.115,2.789s.058-.018.06-.028" transform="translate(-1532.979 -677.355)" fill="#88c75b"/>
            <path id="Path_146945" data-name="Path 146945" d="M1588.006,736.457a14.632,14.632,0,0,1,4.571-1.272,18.953,18.953,0,0,1,4.226.143c.03,0,.11-.059.113-.058a12.418,12.418,0,0,0-8.93,1.18c-.057.031-.02.026.02.008" transform="translate(-1555.576 -724.435)" fill="#88c75b"/>
            <path id="Path_146946" data-name="Path 146946" d="M1524.668,784.315a4.391,4.391,0,0,0,.484-1.955,9.117,9.117,0,0,0-.084-2.08,7.194,7.194,0,0,0-1.7-3.75c-.012-.013-.115.044-.111.052a12.414,12.414,0,0,1,1.432,3.789,9.049,9.049,0,0,1,.138,1.985c-.013.315-.039.63-.076.943a3.233,3.233,0,0,0-.12,1.032s.032-.011.034-.015" transform="translate(-1497.387 -761.886)" fill="#88c75b"/>
            <path id="Path_146947" data-name="Path 146947" d="M1363.321,793.424a19.572,19.572,0,0,1,1.738,4.472,15.846,15.846,0,0,1,.376,2.33q.052.61.056,1.223a3.955,3.955,0,0,0,.024,1.194c0,.007.081-.027.085-.037a5.969,5.969,0,0,0,.065-2.306,15.844,15.844,0,0,0-.367-2.421,13.523,13.523,0,0,0-1.892-4.5c-.007-.01-.089.033-.085.04" transform="translate(-1353.535 -777.045)" fill="#88c75b"/>
            <path id="Path_146948" data-name="Path 146948" d="M1300.408,869.5a3.751,3.751,0,0,0,1.567.638,7.544,7.544,0,0,0,1.914.2,7.728,7.728,0,0,0,3.163-.734c.018-.009.07-.042.018-.023a8.643,8.643,0,0,1-3.277.541,8.854,8.854,0,0,1-1.521-.2c-.579-.128-1.124-.362-1.7-.506a.537.537,0,0,0-.166.081" transform="translate(-1296.95 -845.433)" fill="#88c75b"/>
            <path id="Path_146949" data-name="Path 146949" d="M1621.836,645.6a8.675,8.675,0,0,0,1.584-3.331,12,12,0,0,0,.472-3.683s-.084.02-.086.04a15.91,15.91,0,0,1-.608,3.674,14.913,14.913,0,0,1-.654,1.8c-.129.292-.27.577-.417.86a2.292,2.292,0,0,0-.3.643l.009,0" transform="translate(-1586.04 -637.821)" fill="#88c75b"/>
          </g>
        </g>
        <g id="Group_57602" data-name="Group 57602" transform="translate(0 0)">
          <g id="Group_57601" data-name="Group 57601" clip-path="url(#clip-path)">
            <g id="Group_57591" data-name="Group 57591" transform="translate(144.483 64.328)" style="mix-blend-mode: overlay;isolation: isolate">
              <g id="Group_57590" data-name="Group 57590">
                <g id="Group_57589" data-name="Group 57589" clip-path="url(#clip-path-11)">
                  <path id="Path_146951" data-name="Path 146951" d="M1455.666,657.576q.285-.137.579-.26c-.737.683-1.329,1.513-2.1,2.136-.806.655-1.284.374-2.208.68-1.672.552-3,2.465-4.574,3.392-1.813,1.065-4.663,3.579-6.854,3.461-1.264-.067-1.465-.82-2.185-1.664-.439-.515-1.327-1-1.573-1.64-1.511-3.929,3.929-1.281,5.055-.875,2.36.851,3.293-.875,4.963-2.113,1.574-1.167,3.474-1.918,4.992-3.122a13.283,13.283,0,0,0,3.328-4.545,18.673,18.673,0,0,0,2.214-7.882,13.879,13.879,0,0,0-1.284-5.581,7,7,0,0,1,4.078,5.979,15.078,15.078,0,0,1-1.324,6.39c-.508,1.233-1.872,5.048-3.111,5.645" transform="translate(-1436.492 -639.563)" fill="#666" fill-rule="evenodd"/>
                </g>
              </g>
            </g>
            <g id="Group_57594" data-name="Group 57594" transform="translate(127.338 84.864)" style="mix-blend-mode: overlay;isolation: isolate">
              <g id="Group_57593" data-name="Group 57593">
                <g id="Group_57592" data-name="Group 57592" clip-path="url(#clip-path-12)">
                  <path id="Path_146952" data-name="Path 146952" d="M1311.169,849.072c-2.613,3.3-7.075,3.742-10.957,4.07-4.533.383-9.058.861-13.584,1.317-4.136.416-7.731-.463-11.759-1.361-1.2-.268-2.493-.419-3.725-.707a8.35,8.35,0,0,1-3.137-1.323c-2.381-1.762-2.322-4.624-1.352-7.235a22.74,22.74,0,0,0,.693,2.477,5.793,5.793,0,0,0,4.648,3.6c2.581.194,4.691-.987,7.195.231,1.67.813,1.253,3.034,3.518,2.843a30.142,30.142,0,0,1,5.688.115c3.2.321,6.089-2.278,8.66-3.993,1.24-.828,1.862-1.432,2.548-.2.715,1.281.759,1.842,2.376,2.079,3.169.467,5.321-1.339,7.083-3.729.755-1.025,2.074-2.874,3.576-3.52a6.551,6.551,0,0,1-1.469,5.339" transform="translate(-1266.027 -843.733)" fill="#666" fill-rule="evenodd"/>
                </g>
              </g>
            </g>
            <g id="Group_57597" data-name="Group 57597" transform="translate(148.304 66.244)" style="mix-blend-mode: overlay;isolation: isolate">
              <g id="Group_57596" data-name="Group 57596">
                <g id="Group_57595" data-name="Group 57595" clip-path="url(#clip-path-13)">
                  <path id="Path_146953" data-name="Path 146953" d="M1480.012,663.346c-.183.929-.359,1.794-.463,2.53-.536,3.813-3.323,6.663-4.609,10.178-.067-1.435.99-2.664,1.538-3.947a26.809,26.809,0,0,0,1.986-6.03c.236-1.767-.98-4.112-1.978-5.484a8.858,8.858,0,0,0-2.009-1.98,4.314,4.314,0,0,1,1.946.734c3.366,2.351,3.26,3.489,3.092,4.889-.031.255.143-.146.5-.89" transform="translate(-1474.478 -658.613)" fill="#666" fill-rule="evenodd"/>
                </g>
              </g>
            </g>
            <g id="Group_57600" data-name="Group 57600" transform="translate(134.375 77.706)" style="mix-blend-mode: overlay;isolation: isolate">
              <g id="Group_57599" data-name="Group 57599">
                <g id="Group_57598" data-name="Group 57598" clip-path="url(#clip-path-14)">
                  <path id="Path_146954" data-name="Path 146954" d="M1344.715,776.28a4.648,4.648,0,0,1-1.178,3.6c-1.855,1.856-5.088,1.816-7.55,1.626,1.336-.977,2.849-1.457,4.031-2.806,1.245-1.421,2.305-3.39,2.033-5.238a3.476,3.476,0,0,1,1.32,1.59,18.783,18.783,0,0,1-.757-2.484c.161.169.311.329.446.462,1.091,1.083,1.666,1.67,1.656,3.246" transform="translate(-1335.988 -772.573)" fill="#666" fill-rule="evenodd"/>
                </g>
              </g>
            </g>
            <path id="Path_146955" data-name="Path 146955" d="M150.111,590.759c-.344-1.951-3.728-6.727-5-5.312s5.34,7.262,5,5.312" transform="translate(-130.374 -526.33)" fill="#80a863" fill-rule="evenodd"/>
          </g>
        </g>
        <g id="Group_57613" data-name="Group 57613" transform="translate(0 58.597)">
          <g id="Group_57612" data-name="Group 57612" clip-path="url(#clip-path-15)">
            <path id="Path_146956" data-name="Path 146956" d="M36.086,620.4c-.087.025-20.9-1.16-24.573.071C7.3,621.878,3.64,620.408,1,616.045a7.221,7.221,0,0,1-.529-1.059c-2.2-5.525,3.809-11.305,7.447-9.7,0,0-1.949-3.179-1.461-5.613.827-4.119,5.522-9.07,11.546-7.606A11.2,11.2,0,0,1,21,593.3c1.754,1.02,2.326,1.13,2.347.686.044-.979-2.592-4.653-1.184-7.242,2.049-3.765,6.67-4.505,10.5-4.023a9.35,9.35,0,0,1,3.22.977c3.522,1.862,4.907,5.99,3.549,11.134a6.141,6.141,0,0,1,7.753,7.758c3.368-.61,5.354-.266,6.261.68,3.2,3.335-7.026,14.162-17.354,17.125" transform="translate(0 -582.591)" fill="#80a863" fill-rule="evenodd"/>
            <path id="Path_146957" data-name="Path 146957" d="M316.738,551.57a.427.427,0,0,1-.086-.417l.22.265c-.046.048-.091.1-.135.153" transform="translate(-284.786 -554.315)" fill="#80a863" fill-rule="evenodd"/>
            <path id="Path_146958" data-name="Path 146958" d="M84.069,682.251a22.778,22.778,0,0,0,3.992,5.611c1.473,1.636,3.077,3.149,4.585,4.752a33.036,33.036,0,0,1,4.07,5.058,18.837,18.837,0,0,1,2.422,6.08,20.871,20.871,0,0,1,.225,7.348c0-.008.089-.018.094-.044a20.1,20.1,0,0,0-1.936-12.819c-2-3.931-5.333-6.868-8.355-9.992a44.005,44.005,0,0,1-4.909-6.082c-.014-.022-.2.071-.188.088" transform="translate(-75.613 -672.145)" fill="#597545"/>
            <path id="Path_146959" data-name="Path 146959" d="M257.968,563.007a58.789,58.789,0,0,0,5.344-16.694,62.9,62.9,0,0,0,.83-8.659c.083-3.126-.042-6.251-.087-9.377a74.051,74.051,0,0,1,.454-10.411c0,.015-.186.04-.2.092-1.223,6.106-.58,12.366-.607,18.544a63.59,63.59,0,0,1-2.443,17.335,73.1,73.1,0,0,1-3.361,9.2s.059-.011.067-.028" transform="translate(-231.961 -524.376)" fill="#597545"/>
            <path id="Path_146960" data-name="Path 146960" d="M282.213,652.142a57.542,57.542,0,0,0,14.2-26.044,47.265,47.265,0,0,0,1.283-8.262c0,.01-.165.036-.171.08a66.529,66.529,0,0,1-3.542,14.728A59.961,59.961,0,0,1,287.2,645.7a62.911,62.911,0,0,1-5.164,6.521c.016-.018.138-.034.176-.074" transform="translate(-253.67 -614.291)" fill="#597545"/>
            <path id="Path_146961" data-name="Path 146961" d="M335.453,795.329a13.39,13.39,0,0,1,3.654-3.193,26.448,26.448,0,0,1,4.326-1.958,46.789,46.789,0,0,0,7.42-3.111,10.611,10.611,0,0,0,3.26-2.622c-.016.021-.257.073-.319.134a16.488,16.488,0,0,1-3.559,2.743,29.588,29.588,0,0,1-4.149,1.8,40.525,40.525,0,0,0-7.51,3.226,8.858,8.858,0,0,0-3.282,3.045c0-.007.133-.035.159-.067" transform="translate(-301.57 -764.143)" fill="#597545"/>
            <path id="Path_146962" data-name="Path 146962" d="M370.458,748.228a5.6,5.6,0,0,0,.441-3.62,5.362,5.362,0,0,0-1.783-3.263c-.024-.018-.167.068-.162.076a8.681,8.681,0,0,1,1.66,3.242,7.852,7.852,0,0,1-.171,3.573s.015,0,.017-.008" transform="translate(-331.843 -725.375)" fill="#597545"/>
            <path id="Path_146963" data-name="Path 146963" d="M405.842,714.459a13.091,13.091,0,0,1,2.472-2.733,10.4,10.4,0,0,1,4.123-1.891c.023-.005.107-.055.092-.053a9.827,9.827,0,0,0-3.644,1.473,8.667,8.667,0,0,0-3.144,3.245s.085-.021.1-.042" transform="translate(-364.931 -696.99)" fill="#597545"/>
            <path id="Path_146964" data-name="Path 146964" d="M318.285,588.528a24.232,24.232,0,0,1,1.908-7.252,20.56,20.56,0,0,1,4.255-5.819c-.01.01-.088.023-.112.045a17.765,17.765,0,0,0-4.432,5.954,15.347,15.347,0,0,0-1.662,7.092s.041-.01.043-.02" transform="translate(-286.22 -576.174)" fill="#597545"/>
            <path id="Path_146965" data-name="Path 146965" d="M259.957,737.945a11.1,11.1,0,0,0-5.068-9.975c-.024-.015-.107.055-.111.052a12.629,12.629,0,0,1,3.77,4.356,12.781,12.781,0,0,1,1.324,5.607s.084-.02.085-.04" transform="translate(-229.152 -713.346)" fill="#597545"/>
            <path id="Path_146966" data-name="Path 146966" d="M192.734,763.679a19.792,19.792,0,0,0-.867-5.315,15.483,15.483,0,0,0-2.282-4.841c-.017-.022-.2.072-.188.088.367.8.834,1.546,1.2,2.344a22.16,22.16,0,0,1,.985,2.541,25.067,25.067,0,0,1,1.1,5.207s.052-.013.051-.024" transform="translate(-170.347 -736.328)" fill="#597545"/>
            <path id="Path_146967" data-name="Path 146967" d="M103.438,796.844a9.552,9.552,0,0,0-5.5-2.311,10.976,10.976,0,0,0-5.614.849c-.042.019-.118.072-.026.033a10.882,10.882,0,0,1,5.873-.7,13.032,13.032,0,0,1,5.185,2.174c.016.01.085-.04.085-.04" transform="translate(-82.972 -773.155)" fill="#597545"/>
            <path id="Path_146968" data-name="Path 146968" d="M11.782,860.763a15.043,15.043,0,0,1,11.062-1c2.994.929,5.754,3.113,6.443,6.3a6.722,6.722,0,0,1-.855,5.022c.008-.013.165-.041.2-.085,2.267-2.746,1.14-6.8-1.32-9.008-2.7-2.419-6.661-3.209-10.183-2.826a15.46,15.46,0,0,0-5.354,1.6c-.012.006,0,0,.006,0" transform="translate(-10.587 -831.258)" fill="#597545"/>
            <path id="Path_146969" data-name="Path 146969" d="M103.152,881.972A5.463,5.463,0,0,0,96,882.93c.007-.008.073-.019.092-.039a5.442,5.442,0,0,1,3.887-1.759,6.043,6.043,0,0,1,3.04.9c.03.018.131-.068.137-.064" transform="translate(-86.341 -851.027)" fill="#597545"/>
            <path id="Path_146970" data-name="Path 146970" d="M121.552,683.591a29.867,29.867,0,0,1-.955-3.384,21.053,21.053,0,0,1-.255-3.45s-.123.031-.128.06a10.147,10.147,0,0,0,1.226,6.827c.007.011.115-.039.111-.052" transform="translate(-107.995 -667.285)" fill="#597545"/>
            <g id="Group_57605" data-name="Group 57605" transform="translate(18.005 9.479)" style="mix-blend-mode: overlay;isolation: isolate">
              <g id="Group_57604" data-name="Group 57604">
                <g id="Group_57603" data-name="Group 57603" clip-path="url(#clip-path-16)">
                  <path id="Path_146971" data-name="Path 146971" d="M189.9,690.226c.024.75-1.516.739-2.026,1.059a4.5,4.5,0,0,0-1.73,2.306c-.265.677-.3,2.007-.776,2.571-.556.665-.937-.515-1.469-.849s-1.334-.309-1.788-.721c-.379-.344-.189-.752-.424-1.107-.362-.544-.923-.3-.958-1.136-.054-1.292,1.037-2.49.858-3.851a2.246,2.246,0,0,0-.986-1.612c-.52-.3-1.537-.023-1.332-.773.2-.731,1.467-1.476,1.9-2.135a5.413,5.413,0,0,0,1.038-2.7,4.258,4.258,0,0,0-1.751-3.395,12.127,12.127,0,0,0-1.448-1.045A11.205,11.205,0,0,1,182,678.064c1.754,1.02,2.326,1.131,2.347.686a6.237,6.237,0,0,1,1.1,1.35,3.855,3.855,0,0,1,.7,2.253c-.156,1.481-1.041,2.431-.084,3.913a10.869,10.869,0,0,0,2.328,2.247c.38.324,1.49,1.122,1.508,1.714" transform="translate(-179.008 -676.833)" fill="#666" fill-rule="evenodd"/>
                </g>
              </g>
            </g>
            <g id="Group_57608" data-name="Group 57608" transform="translate(31.091 1.108)" style="mix-blend-mode: overlay;isolation: isolate">
              <g id="Group_57607" data-name="Group 57607">
                <g id="Group_57606" data-name="Group 57606" clip-path="url(#clip-path-17)">
                  <path id="Path_146972" data-name="Path 146972" d="M318.449,615.923a7.911,7.911,0,0,1-4.147,2.428,9.055,9.055,0,0,0-4.083,1.8c-.2.172-1.169,1.39-1.1.575.021-.256.4-.51.542-.708a12.65,12.65,0,0,0,.7-1.373c.512-.97,1.352-1.894,1.246-3.053-.1-1.119-.942-1.364-1.544-2.137-.484-.622-.106-1.207.372-1.706a6.777,6.777,0,0,0,1.8-2.46,3.8,3.8,0,0,0-.118-2.964c-.345-.72-.6-.8-.044-1.539.813-1.085,2.127-1.68,2.784-2.892a4.968,4.968,0,0,0,.442-2.692,12.464,12.464,0,0,0-.666-4.287,7.088,7.088,0,0,0-.728-1.314c3.522,1.862,4.907,5.99,3.549,11.134a6.179,6.179,0,0,1,.744-.194,4.118,4.118,0,0,1-.7.734c-.748.609-1.578.893-1.934,1.872a3.778,3.778,0,0,0,.946,4.378c1.292,1.177,3.454,2.511,1.939,4.4" transform="translate(-309.115 -593.603)" fill="#666" fill-rule="evenodd"/>
                </g>
              </g>
            </g>
            <g id="Group_57611" data-name="Group 57611" transform="translate(0.472 20.68)" style="mix-blend-mode: overlay;isolation: isolate">
              <g id="Group_57610" data-name="Group 57610">
                <g id="Group_57609" data-name="Group 57609" clip-path="url(#clip-path-18)">
                  <path id="Path_146973" data-name="Path 146973" d="M40.312,805.318c-.087.025-20.9-1.16-24.573.071-4.211,1.411-7.873-.058-10.512-4.422a7.221,7.221,0,0,1-.529-1.059l.043.022c.968.494,1.972.934,2.884,1.516a10.559,10.559,0,0,0,3.255.995c1.354.365,2.6,1.018,3.959,1.373A7.727,7.727,0,0,0,20.5,802.9a9.037,9.037,0,0,1,2.6-1.369c1.131-.32,2.223-.585,3.379-.8,3.045-.559,6.169-1.535,9.156-.337,1.475.591,2.856,1.425,4.481,1.481a5.654,5.654,0,0,0,3.108-.4c1.244-.827,1.545-2.575,1.981-3.88.588-1.762,2.18-2.037,3.874-2.052a11.265,11.265,0,0,0,3.724-.737c1.472-.549,2.508-2,3.45-3.2a5.355,5.355,0,0,0,1.414-3.416c3.2,3.335-7.026,14.162-17.354,17.125" transform="translate(-4.698 -788.193)" fill="#666" fill-rule="evenodd"/>
                </g>
              </g>
            </g>
          </g>
        </g>
        <g id="Group_57615" data-name="Group 57615" transform="translate(0 0)">
          <g id="Group_57614" data-name="Group 57614" clip-path="url(#clip-path)">
            <path id="Path_146975" data-name="Path 146975" d="M120.206,860.726c43.112,0,78.06,6.258,78.06,13.979s-34.949,13.979-78.06,13.979-78.06-6.258-78.06-13.979,34.949-13.979,78.06-13.979" transform="translate(-37.907 -774.153)" fill="#93b77a" fill-rule="evenodd"/>
          </g>
        </g>
        <g id="Group_57617" data-name="Group 57617" transform="translate(4.239 86.573)">
          <g id="Group_57616" data-name="Group 57616" clip-path="url(#clip-path-20)">
            <path id="Path_146976" data-name="Path 146976" d="M75.57,867.705c8.578-1.276,75.28-16.041,87.255-18.257s19.029-2.4,15.227,2.576-16.322,12.922-32.873,24.987c-17.181,12.524-78.187-8.03-69.609-9.306" transform="translate(-71.469 -849.247)" fill="#a9d3f9" fill-rule="evenodd"/>
          </g>
        </g>
        <g id="Group_57624" data-name="Group 57624" transform="translate(0 0)">
          <g id="Group_57623" data-name="Group 57623" clip-path="url(#clip-path)">
            <path id="Path_146978" data-name="Path 146978" d="M877.819,748.477a1.288,1.288,0,0,1,.089,1.765c-.427.674-1.158.976-1.633.675a1.288,1.288,0,0,1-.089-1.765c.427-.674,1.158-.976,1.633-.675" transform="translate(-787.793 -673.09)" fill="#639142" fill-rule="evenodd"/>
            <path id="Path_146979" data-name="Path 146979" d="M738.711,739.721c-3.258,4.741,2.58,6.727,2.58,6.727,8.148,2.745,21.363-1.565,14.042-7.523-2.138-1.74-5.331.826-5.331.826s1.166-6.427-2.089-6.577-7.756,3.54-5.7,6.913c0,0-1.185-3.735-3.5-.366" transform="translate(-663.521 -659.426)" fill="#639142" fill-rule="evenodd"/>
            <path id="Path_146980" data-name="Path 146980" d="M1500.879,587.493c-2.986.1-4.03-.838-2.172-4.516s4.959-2.065,4.638.793-1.954,3.705-2.466,3.723" transform="translate(-1347.132 -522.421)" fill="#639142" fill-rule="evenodd"/>
            <g id="Group_57622" data-name="Group 57622" transform="translate(16.255 103.877)" style="mix-blend-mode: overlay;isolation: isolate">
              <g id="Group_57621" data-name="Group 57621">
                <g id="Group_57620" data-name="Group 57620" clip-path="url(#clip-path-22)">
                  <g id="Group_57619" data-name="Group 57619" transform="translate(0 0)">
                    <g id="Group_57618" data-name="Group 57618" clip-path="url(#clip-path-23)">
                      <rect id="Rectangle_20246" data-name="Rectangle 20246" width="6.095" height="18.794" transform="translate(-3.483 1.546) rotate(-76.493)" fill="url(#linear-gradient-3)"/>
                    </g>
                  </g>
                </g>
              </g>
            </g>
            <path id="Path_146982" data-name="Path 146982" d="M238.181,749.625c-.123-.521-.187-.952-.875-.95a.884.884,0,0,0-.953.974c.04.475.574,1.236,1.276,1s.676-.505.552-1.027" transform="translate(-212.578 -673.372)" fill="#18456d" fill-rule="evenodd"/>
            <path id="Path_146983" data-name="Path 146983" d="M284.745,928.526c-.079.531-.8,8.429-.847,8.982a1.372,1.372,0,0,0,1.041,1.357c.713.25-1.379.161-2.008.256s-.289-.042-.091-.767a10.3,10.3,0,0,0-.378-3.619c-.247-1.187-1.111-5.556-1.261-6.414s3.624-.326,3.545.206" transform="translate(-252.913 -834.542)" fill="#fbd2c2" fill-rule="evenodd"/>
          </g>
        </g>
        <g id="Group_57626" data-name="Group 57626" transform="translate(28.283 93.326)">
          <g id="Group_57625" data-name="Group 57625" clip-path="url(#clip-path-24)">
            <path id="Path_146984" data-name="Path 146984" d="M279.946,932.611a65.1,65.1,0,0,0,0,7.87c.2,1.8-1.14-1.609-1.284-2.29s-.995-4.313-.509-4.735,1.914-2.189,1.8-.844" transform="translate(-278.323 -931.688)" fill="#fdc7b2" fill-rule="evenodd"/>
          </g>
        </g>
        <g id="Group_57628" data-name="Group 57628" transform="translate(0 0)">
          <g id="Group_57627" data-name="Group 57627" clip-path="url(#clip-path)">
            <path id="Path_146986" data-name="Path 146986" d="M178.6,937.188c-.125,1.12.006,1.38-.429,1.91s-4.787,4.839-5.028,5.126a2.518,2.518,0,0,0-.513.8c-.032.142,0,.1.064.536.11.769-.577-.441-1.1-1.131s.014-.486.509-.851a11.806,11.806,0,0,0,2.169-3.291c.9-1.679,1.206-2.528,1.785-2.983s2.672-1.236,2.548-.115" transform="translate(-154.134 -842.406)" fill="#fbd2c2" fill-rule="evenodd"/>
          </g>
        </g>
        <g id="Group_57630" data-name="Group 57630" transform="translate(17.237 94.205)">
          <g id="Group_57629" data-name="Group 57629" clip-path="url(#clip-path-26)">
            <path id="Path_146987" data-name="Path 146987" d="M181.3,939.455a42.123,42.123,0,0,1-3.083,4.721c-.521.537-1.8,1.358-1.283-.288s2.912-6,3.637-5.721.932.776.729,1.287" transform="translate(-176.268 -937.999)" fill="#fdc7b2" fill-rule="evenodd"/>
          </g>
        </g>
        <g id="Group_57632" data-name="Group 57632" transform="translate(0 0)">
          <g id="Group_57631" data-name="Group 57631" clip-path="url(#clip-path)">
            <path id="Path_146989" data-name="Path 146989" d="M294.264,1030.614c.1-.045.077-.048.249.153s.48.306.657.163.235-.443.4-.4.134.253.443.393c.446.2.833.3.926.382s-.333.1-.581.134-2.173.142-2.29.173-.112-.176-.046-.347c.1-.27.131-.6.245-.652" transform="translate(-264.405 -926.875)" fill="#18456d" fill-rule="evenodd"/>
            <path id="Path_146990" data-name="Path 146990" d="M169.476,1005.692c.089.058.081.04,0,.293s-.008.569.206.645.5-.032.548.128-.145.247-.1.584c.061.486.183.866.16.989s-.263-.229-.419-.424-1.261-1.776-1.348-1.859.091-.188.271-.222c.283-.056.578-.2.684-.134" transform="translate(-151.551 -904.522)" fill="#18456d" fill-rule="evenodd"/>
            <path id="Path_146991" data-name="Path 146991" d="M252.285,881.383c.269.536,1.476,2.68,1.761,3.248a2.845,2.845,0,0,1,.488,1.564,9.4,9.4,0,0,1-5.178,1.611,16.111,16.111,0,0,0-.36-1.719c-.254-.968-.92-4.934-1.439-5.337s4.459.1,4.729.633" transform="translate(-222.623 -792.031)" fill="#f97166" fill-rule="evenodd"/>
          </g>
        </g>
        <g id="Group_57634" data-name="Group 57634" transform="translate(24.896 88.572)">
          <g id="Group_57633" data-name="Group 57633" clip-path="url(#clip-path-28)">
            <path id="Path_146992" data-name="Path 146992" d="M249.628,886.909c-.261,1.259,1.842,4.708,3.458,5.031s2.824-.038,3.051-.571a4.11,4.11,0,0,1-1.086,1.7,50.73,50.73,0,0,1-5.405,1.51,40.781,40.781,0,0,1-1.255-5.138,6.634,6.634,0,0,1,1.238-2.533" transform="translate(-248.302 -886.253)" fill="#f86255" fill-rule="evenodd"/>
          </g>
        </g>
        <g id="Group_57636" data-name="Group 57636" transform="translate(0 0)">
          <g id="Group_57635" data-name="Group 57635" clip-path="url(#clip-path)">
            <path id="Path_146994" data-name="Path 146994" d="M215.877,873.149c.238,1.532.481,7.381.122,7.2-.117.822-4.7.408-4.9-.334,0,0,.414-4,.433-4.835a3.982,3.982,0,0,1,.587-2.317c.44-.5,3.538-1.105,3.753.285" transform="translate(-189.87 -784.557)" fill="#f97166" fill-rule="evenodd"/>
          </g>
        </g>
        <g id="Group_57638" data-name="Group 57638" transform="translate(21.233 87.736)">
          <g id="Group_57637" data-name="Group 57637" clip-path="url(#clip-path-30)">
            <path id="Path_146995" data-name="Path 146995" d="M199.657,900.216c.15.836,1.551,5.2,3.122,5.615s1.356,1.66.3,1.713-5.014-1.123-5.177-1.994,1.6-6.17,1.751-5.333" transform="translate(-199.224 -897.327)" fill="#f86255" fill-rule="evenodd"/>
          </g>
        </g>
        <g id="Group_57640" data-name="Group 57640" transform="translate(21.778 78.504)">
          <g id="Group_57639" data-name="Group 57639" clip-path="url(#clip-path-31)">
            <rect id="Rectangle_20252" data-name="Rectangle 20252" width="14.111" height="12.848" transform="translate(-5.223 8.513) rotate(-58.471)" fill="url(#linear-gradient-4)"/>
          </g>
        </g>
        <g id="Group_57642" data-name="Group 57642" transform="translate(0 0)">
          <g id="Group_57641" data-name="Group 57641" clip-path="url(#clip-path)">
            <path id="Path_146998" data-name="Path 146998" d="M262.59,790.512l-.606-9.02,7.823-.11.184,9.362Z" transform="translate(-235.634 -702.789)" fill="#ebd396" fill-rule="evenodd"/>
          </g>
        </g>
        <g id="Group_57644" data-name="Group 57644" transform="translate(34.174 78.592)">
          <g id="Group_57643" data-name="Group 57643" clip-path="url(#clip-path-33)">
            <rect id="Rectangle_20254" data-name="Rectangle 20254" width="8.494" height="10.592" transform="matrix(0.905, -0.426, 0.426, 0.905, -3.607, 1.697)" fill="url(#linear-gradient-5)"/>
          </g>
        </g>
        <g id="Group_57646" data-name="Group 57646" transform="translate(0 0)">
          <g id="Group_57645" data-name="Group 57645" clip-path="url(#clip-path)">
            <path id="Path_147000" data-name="Path 147000" d="M370.216,847.161l.032.768,1.048-.014-.008-.731Z" transform="translate(-332.98 -761.952)" fill="#f3e5c2" fill-rule="evenodd"/>
            <path id="Path_147001" data-name="Path 147001" d="M235.781,822.82a14.343,14.343,0,0,0,2.065,1.316c.83.469,3,1.481,3.785,1.259s1.98-.55.688.077c-.541.262.451.093.616.054.488-.115.892-.438.921-.222.022.171-.808.59-1.232.809s-.553.192-1.307.211a19.8,19.8,0,0,1-3.862-.256,17.34,17.34,0,0,1-3.885-1.914c-.453-.437,1.772-1.718,2.21-1.334" transform="translate(-210.024 -739.996)" fill="#fbd2c2" fill-rule="evenodd"/>
          </g>
        </g>
        <g id="Group_57648" data-name="Group 57648" transform="translate(23.487 82.753)">
          <g id="Group_57647" data-name="Group 57647" clip-path="url(#clip-path-35)">
            <path id="Path_147002" data-name="Path 147002" d="M227.365,821.325a19.139,19.139,0,0,0,4.844,2.968c1.324.4,4.163.392,4.216.756s-6.29-.12-6.733-.21-3.151-1.993-3.071-2.32-.01-1.9.744-1.195" transform="translate(-227.313 -821.305)" fill="#fdc7b2" fill-rule="evenodd"/>
          </g>
        </g>
        <g id="Group_57650" data-name="Group 57650" transform="translate(0 0)">
          <g id="Group_57649" data-name="Group 57649" clip-path="url(#clip-path)">
            <path id="Path_147004" data-name="Path 147004" d="M215.285,785.788a3.666,3.666,0,0,0-1.583,1.838c-.222.92.552,3.854.493,4.582s.529-.293,1.551-1.311a5.254,5.254,0,0,1,2.183-1.361c.262-.1-1.718-1.948-2.077-2.584s-.21-1.406-.566-1.163" transform="translate(-192.171 -706.711)" fill="#fff" fill-rule="evenodd"/>
            <path id="Path_147005" data-name="Path 147005" d="M243.687,767.3a1.924,1.924,0,0,0,.478,1.021.707.707,0,0,1-.694.527,1.613,1.613,0,0,1-1.012-.525c.067.093.473-.789.4-1.168-.067-.322.693-.383.832.146" transform="translate(-218.072 -689.766)" fill="#fbd2c2" fill-rule="evenodd"/>
          </g>
        </g>
        <g id="Group_57652" data-name="Group 57652" transform="translate(24.387 77.136)">
          <g id="Group_57651" data-name="Group 57651" clip-path="url(#clip-path-37)">
            <path id="Path_147006" data-name="Path 147006" d="M248.518,766.465c.189.281.734,1.247,1.048.8s.341-.688.067-.99-1.3-.094-1.115.189" transform="translate(-247.888 -766.206)" fill="#fdc7b2" fill-rule="evenodd"/>
          </g>
        </g>
        <g id="Group_57659" data-name="Group 57659" transform="translate(0 0)">
          <g id="Group_57658" data-name="Group 57658" clip-path="url(#clip-path)">
            <path id="Path_147008" data-name="Path 147008" d="M240.755,754.858c-.011-.043-.022-.091-.035-.146-.115-.5.166-1.273.758-.94a1.7,1.7,0,0,1,.768,1.564c-.083.395-.582.51-.993.16-.07-.062-.131-.11-.181-.152-.179.128-.883-.04-.951-.339-.056-.246.328-.23.635-.147" transform="translate(-215.963 -677.884)" fill="#fbd2c2" fill-rule="evenodd"/>
            <g id="Group_57657" data-name="Group 57657" transform="translate(31.735 103.893)" style="mix-blend-mode: overlay;isolation: isolate">
              <g id="Group_57656" data-name="Group 57656">
                <g id="Group_57655" data-name="Group 57655" clip-path="url(#clip-path-39)">
                  <g id="Group_57654" data-name="Group 57654" transform="translate(0 0)">
                    <g id="Group_57653" data-name="Group 57653" clip-path="url(#clip-path-40)">
                      <rect id="Rectangle_20257" data-name="Rectangle 20257" width="6.793" height="24.027" transform="translate(-1.236 3.105) rotate(-82.18)" fill="url(#linear-gradient-6)"/>
                    </g>
                  </g>
                </g>
              </g>
            </g>
            <path id="Path_147010" data-name="Path 147010" d="M327.044,590.4a1.235,1.235,0,0,0-1.9-1.39,5.849,5.849,0,0,0-1.75,3.147c-.277,1.067-1.734,1.26-2.415,1.051s-4.312-.251-5.11,1.694-.764,4.259.385,5.476c0,0-.776-1.673-.1-2.5s1.612-1.3,1.343-.7-.7,2.273.21,3.242,3.869,1.978,5.554.165,1.478-2.754,1.369-3.857,2.226-5.788,2.418-6.333" transform="translate(-283.605 -529.516)" fill="#18456d" fill-rule="evenodd"/>
            <path id="Path_147011" data-name="Path 147011" d="M379.553,993.246a7.318,7.318,0,0,1-1.146,1.388c-.406.319-.577.454-.782.59s.119.425.289,1.164a4.973,4.973,0,0,0,.986,2.082c.431.449.043-.78-.008-1.2s-.274-1.422.032-1.9a6.362,6.362,0,0,1,1.341-1.383c.159-.051-.52-1.034-.712-.745" transform="translate(-339.583 -893.297)" fill="#fbd2c2" fill-rule="evenodd"/>
          </g>
        </g>
        <g id="Group_57661" data-name="Group 57661" transform="translate(37.975 99.896)">
          <g id="Group_57660" data-name="Group 57660" clip-path="url(#clip-path-41)">
            <path id="Path_147012" data-name="Path 147012" d="M376.487,1008.437a10.584,10.584,0,0,0,.523,2.744c.193.392.627.354.583.178s.054,1.073-.118,1.132-1.066-1.41-1.287-1.855a3.508,3.508,0,0,1-.373-1.635c.088-.293.672-.563.672-.563" transform="translate(-375.974 -1006.904)" fill="#286499" fill-rule="evenodd"/>
          </g>
        </g>
        <g id="Group_57663" data-name="Group 57663" transform="translate(0 0)">
          <g id="Group_57662" data-name="Group 57662" clip-path="url(#clip-path)">
            <path id="Path_147014" data-name="Path 147014" d="M384.985,633.994a6.071,6.071,0,0,0-.594,2.38c-.136.938-.242,1.882-.332,2.826-.182,1.917-.186,3.834-.257,5.757,0-.007.129-.027.128-.06a50.355,50.355,0,0,1,.289-5.585c.079-.909.179-1.816.293-2.721a8,8,0,0,1,.5-2.607s-.021,0-.025.011" transform="translate(-345.2 -570.216)" fill="#575757"/>
            <path id="Path_147015" data-name="Path 147015" d="M398.17,704.3a34.036,34.036,0,0,1,3.552,5.311c.641,1.518,1.143,11.179-.016,13.891s-7.345,9.84-8.713,10.689c0,0-.7-.193-.819-.63,0,0,2.234-4.577,2.743-5.8.421-1.015,1.284-4.11,2.9-5s-.625-15.7-.836-16.432-1.012-1.65-.381-2.2a1.006,1.006,0,0,1,1.57.169" transform="translate(-352.729 -633.028)" fill="#fbc53b" fill-rule="evenodd"/>
          </g>
        </g>
        <g id="Group_57665" data-name="Group 57665" transform="translate(39.445 70.791)">
          <g id="Group_57664" data-name="Group 57664" clip-path="url(#clip-path-43)">
            <path id="Path_147016" data-name="Path 147016" d="M444.975,886.585c-1.28-.508-5.54,1.212-4.713-.986a15.278,15.278,0,0,0,.352-7.576c-.431-2.514,1.527-.892,3.815,3.239s1.825,5.832.545,5.322" transform="translate(-435.33 -859.426)" fill="#fab70a" fill-rule="evenodd"/>
            <path id="Path_147017" data-name="Path 147017" d="M451.18,746.728c.605,1.536,2.873,11.942,4.043,11.719s1.149,3.581-.239,4.037-4.252-6.262-4.234-7.6-.174-9.688.43-8.152" transform="translate(-444.845 -742.243)" fill="#fab70a" fill-rule="evenodd"/>
          </g>
        </g>
        <g id="Group_57667" data-name="Group 57667" transform="translate(0 0)">
          <g id="Group_57666" data-name="Group 57666" clip-path="url(#clip-path)">
            <path id="Path_147019" data-name="Path 147019" d="M504.488,1014.973a7.323,7.323,0,0,1,.567,1.708c.055.513.078.73.083.976s.423.125,1.139.374a4.974,4.974,0,0,0,2.287.272c.609-.126-.638-.451-1.02-.63s-1.35-.524-1.589-1.036a6.36,6.36,0,0,1-.458-1.871c.041-.162-1.152-.109-1.01.206" transform="translate(-453.736 -912.62)" fill="#fbd2c2" fill-rule="evenodd"/>
          </g>
        </g>
        <g id="Group_57669" data-name="Group 57669" transform="translate(50.741 102.057)">
          <g id="Group_57668" data-name="Group 57668" clip-path="url(#clip-path-45)">
            <path id="Path_147020" data-name="Path 147020" d="M509.084,1037.913a10.584,10.584,0,0,0,2.6,1.016c.435.045.633-.342.461-.4s.937.525.9.7a6.76,6.76,0,0,1-2.255.1,3.509,3.509,0,0,1-1.583-.553c-.2-.23-.12-.868-.12-.868" transform="translate(-508.606 -1035.576)" fill="#286499" fill-rule="evenodd"/>
          </g>
        </g>
        <g id="Group_57671" data-name="Group 57671" transform="translate(0 0)">
          <g id="Group_57670" data-name="Group 57670" clip-path="url(#clip-path)">
            <path id="Path_147022" data-name="Path 147022" d="M397.453,703.251a9.079,9.079,0,0,1-1.243,2.991,7.7,7.7,0,0,0-.766,4.148c.2,1.073,3.718,8.311,4.51,10.33s1.94,6.128,2.935,8.22a56.633,56.633,0,0,0,3.49,5.605s.788.262,1.017-.165-3.227-13.624-3.378-14.6-2.281-11.454-2.405-12.221-1.358-4.505-1.89-4.635-2.189-.27-2.269.326" transform="translate(-355.626 -632.121)" fill="#fbc53b" fill-rule="evenodd"/>
          </g>
        </g>
        <g id="Group_57673" data-name="Group 57673" transform="translate(39.588 63.372)">
          <g id="Group_57672" data-name="Group 57672" clip-path="url(#clip-path-47)">
            <rect id="Rectangle_20263" data-name="Rectangle 20263" width="10.991" height="10.16" transform="translate(-4.119 6.604) rotate(-59.481)" fill="url(#linear-gradient-7)"/>
          </g>
        </g>
        <g id="Group_57678" data-name="Group 57678" transform="translate(0 0)">
          <g id="Group_57677" data-name="Group 57677" clip-path="url(#clip-path)">
            <path id="Path_147024" data-name="Path 147024" d="M384.791,739.415c-.342.494-5,.437-5.322-.076a.8.8,0,0,1-.09-.252,5.6,5.6,0,0,1-.044-1.364q.008-.124.018-.247c.022-.251.053-.5.092-.717a1.764,1.764,0,0,1,.272-.827c.36-.3,3.579-.234,4.711-.078.1.012.176.026.239.04a.554.554,0,0,1,.124.038c.4.2.343,2.989,0,3.484" transform="translate(-341.164 -661.721)" fill="#c2c2c2" fill-rule="evenodd"/>
            <path id="Path_147025" data-name="Path 147025" d="M385.359,740.6c-.342.494-5,.437-5.322-.076a.8.8,0,0,1-.09-.252c1.245.221,4.641.193,4.842-.047a7.763,7.763,0,0,0,.206-3.186c.1.012.176.026.239.04a.554.554,0,0,1,.124.038c.4.2.343,2.989,0,3.484" transform="translate(-341.733 -662.901)" fill="#b8b8b8" fill-rule="evenodd"/>
            <g id="Group_57676" data-name="Group 57676" transform="translate(38.171 74.115)" style="mix-blend-mode: multiply;isolation: isolate">
              <g id="Group_57675" data-name="Group 57675">
                <g id="Group_57674" data-name="Group 57674" clip-path="url(#clip-path-49)">
                  <path id="Path_147026" data-name="Path 147026" d="M384.693,737.013c-.229.4-.064,1.265-.387,1.673-.3.375-3.441.21-4.8.066q.008-.124.018-.247c.022-.251.053-.5.092-.717a1.8,1.8,0,0,1,.316-.688c.39-.326,3.95-.269,4.759-.087" transform="translate(-379.508 -736.866)" fill="#e8e8e8" fill-rule="evenodd"/>
                </g>
              </g>
            </g>
            <path id="Path_147027" data-name="Path 147027" d="M383.28,735.517c-.452.127-.308,1.146-.631,1.554-.3.382-3.566.2-4.876.058a3.546,3.546,0,0,1,.5-1.644c.39-.326,4.193-.15,5,.032" transform="translate(-339.777 -661.345)" fill="#dedede" fill-rule="evenodd"/>
            <path id="Path_147028" data-name="Path 147028" d="M397.22,752.463a.371.371,0,1,1-.371-.371.371.371,0,0,1,.371.371" transform="translate(-356.6 -676.446)" fill="#f97167" fill-rule="evenodd"/>
            <path id="Path_147029" data-name="Path 147029" d="M398.316,644.324a38.211,38.211,0,0,0-.375-4.726,20.123,20.123,0,0,0-.87-4.435,4.969,4.969,0,0,0-1.586-2.217c-.281-.209-.9-.448-1.116,0a.66.66,0,0,0,.126-.053c.5-.481,1.495.778,1.752,1.11a6.233,6.233,0,0,1,1.08,2.662c.512,2.531.5,5.137.962,7.671,0,0,.026-.007.026-.012" transform="translate(-354.704 -569.054)" fill="#575757"/>
            <path id="Path_147030" data-name="Path 147030" d="M442.147,637.389l-.637-9.912,8.229-.121.193,10.289Z" transform="translate(-397.103 -564.255)" fill="#ebd396" fill-rule="evenodd"/>
          </g>
        </g>
        <g id="Group_57680" data-name="Group 57680" transform="translate(52.636 63.1)">
          <g id="Group_57679" data-name="Group 57679" clip-path="url(#clip-path-50)">
            <rect id="Rectangle_20266" data-name="Rectangle 20266" width="11.526" height="9.724" transform="matrix(0.506, -0.863, 0.863, 0.506, -4.489, 7.657)" fill="url(#linear-gradient-8)"/>
          </g>
        </g>
        <g id="Group_57682" data-name="Group 57682" transform="translate(0 0)">
          <g id="Group_57681" data-name="Group 57681" clip-path="url(#clip-path)">
            <path id="Path_147032" data-name="Path 147032" d="M555.349,699.644l.034.844,1.1-.016-.008-.8Z" transform="translate(-499.492 -629.273)" fill="#f3e5c2" fill-rule="evenodd"/>
            <path id="Path_147033" data-name="Path 147033" d="M409.277,663.838c.478.31,3.437,1.83,5.114,2.6a13.214,13.214,0,0,0,2.684.88,4.49,4.49,0,0,0,1.348.408,5.57,5.57,0,0,0,1.625-.382c.3-.182-.149-.141-1.025-.27s-.955-.235-.707-.293,1.076-.337.43-.285a6.912,6.912,0,0,1-.976.05,2.307,2.307,0,0,1-1.467-.477c-.6-.4-1.27-.956-2.38-1.873-1.465-1.209-2.911-2.648-2.911-2.648-.253-.245-2.322,1.914-1.737,2.293" transform="translate(-368.018 -594.988)" fill="#fcd3c3" fill-rule="evenodd"/>
          </g>
        </g>
        <g id="Group_57684" data-name="Group 57684" transform="translate(41.155 66.537)">
          <g id="Group_57683" data-name="Group 57683" clip-path="url(#clip-path-52)">
            <path id="Path_147034" data-name="Path 147034" d="M406.245,669.952a67.809,67.809,0,0,0,8.155,4.811,9.791,9.791,0,0,0,1.722.224c1.38.069-1.964.684-1.964.684s-5.762-2.695-6.095-2.863-2.151-.884-2.1-1.542-.6-2.044.28-1.315" transform="translate(-406.122 -668.919)" fill="#fdc7b2" fill-rule="evenodd"/>
          </g>
        </g>
        <g id="Group_57686" data-name="Group 57686" transform="translate(0 0)">
          <g id="Group_57685" data-name="Group 57685" clip-path="url(#clip-path)">
            <path id="Path_147036" data-name="Path 147036" d="M389.066,633.522a1.648,1.648,0,0,0-.681,1.719,4.08,4.08,0,0,0,1.155,2.212c.369.427.867,1.011,1.019,1.134,0,0,1.356-2.252,1.737-2.293,0,0-1.254-1.558-1.615-1.94s-1.215-1.139-1.614-.832" transform="translate(-349.299 -569.737)" fill="#f97167" fill-rule="evenodd"/>
            <path id="Path_147037" data-name="Path 147037" d="M412.23,611.5c.021.233.046,1.243-.206,1.5a1.207,1.207,0,0,1-.641.368,8.4,8.4,0,0,0,1.084,1.195c.884.7,1.478.088,1.55-.173s-.045-.429-.392-.825a1.682,1.682,0,0,1-.531-1.321c.061-.51-.884-.972-.864-.739" transform="translate(-370.005 -549.942)" fill="#fcd3c3" fill-rule="evenodd"/>
          </g>
        </g>
        <g id="Group_57688" data-name="Group 57688" transform="translate(41.377 61.499)">
          <g id="Group_57687" data-name="Group 57687" clip-path="url(#clip-path-54)">
            <path id="Path_147038" data-name="Path 147038" d="M419.423,612.033c.082.387.585,1.743,1.009,1.51s.256-.779.133-1.06-1.223-.835-1.142-.449" transform="translate(-418.611 -611.855)" fill="#fdc7b2" fill-rule="evenodd"/>
          </g>
        </g>
        <g id="Group_57695" data-name="Group 57695" transform="translate(0 0)">
          <g id="Group_57694" data-name="Group 57694" clip-path="url(#clip-path)">
            <path id="Path_147040" data-name="Path 147040" d="M413.811,598.94c.019-.411.152-.867.689-.95.517-.082.763.558.812.992.043.379.238,1.414-.272,1.415a1.222,1.222,0,0,1-1.019-.636c-.19.026-.488-.109-.617-.637-.1-.4.166-.347.406-.184" transform="translate(-371.806 -537.837)" fill="#fcd3c3" fill-rule="evenodd"/>
            <g id="Group_57693" data-name="Group 57693" transform="translate(58.535 105.925)" style="mix-blend-mode: overlay;isolation: isolate">
              <g id="Group_57692" data-name="Group 57692">
                <g id="Group_57691" data-name="Group 57691" clip-path="url(#clip-path-39)">
                  <g id="Group_57690" data-name="Group 57690" transform="translate(0 0)">
                    <g id="Group_57689" data-name="Group 57689" clip-path="url(#clip-path-57)">
                      <rect id="Rectangle_20269" data-name="Rectangle 20269" width="6.793" height="24.027" transform="translate(-1.236 3.105) rotate(-82.18)" fill="url(#linear-gradient-9)"/>
                    </g>
                  </g>
                </g>
              </g>
            </g>
            <path id="Path_147042" data-name="Path 147042" d="M674.375,549.7c.545-.216.905-.547.517-1.236s-2.181-.593-2.183.045.23.745.257.756a.38.38,0,0,0-.576.069c-.273.347-.438.792.273,1.084s1.164-.5,1.711-.718" transform="translate(-604.55 -492.871)" fill="#e95149" fill-rule="evenodd"/>
            <path id="Path_147043" data-name="Path 147043" d="M726.066,646.884c.64.24,4.142-1.439,4.916-1.933s1.286-.619,1.38-1.131c.176-.951.525-1.047.544.1a1.68,1.68,0,0,1-.165.809,6.8,6.8,0,0,1-.785.574c-.261.136-4.415,3.757-4.914,3.8a6.848,6.848,0,0,1-2.412-1.15c-.328-.265.795-1.3,1.436-1.067" transform="translate(-651.693 -578.4)" fill="#fcd3c3" fill-rule="evenodd"/>
          </g>
        </g>
        <g id="Group_57697" data-name="Group 57697" transform="translate(72.878 64.682)">
          <g id="Group_57696" data-name="Group 57696" clip-path="url(#clip-path-58)">
            <path id="Path_147044" data-name="Path 147044" d="M719.744,670.251c1.015.059,4.38-2.605,4.751-3.354s-5.743.451-5.573,1.41-.194,1.886.822,1.943" transform="translate(-719.487 -664.291)" fill="#fdc7b2" fill-rule="evenodd"/>
          </g>
        </g>
        <g id="Group_57699" data-name="Group 57699" transform="translate(0 0)">
          <g id="Group_57698" data-name="Group 57698" clip-path="url(#clip-path)">
            <path id="Path_147046" data-name="Path 147046" d="M787.022,1040.635a9.377,9.377,0,0,1-.666,2.221c-.253.4,1.45.385,4.114.033,1.113-.147.549-.348-.407-.506a3.29,3.29,0,0,1-1.363-.665c-.5-.387-.865-.854-.838-1.172.05-.584-.7-.652-.841.089" transform="translate(-707.241 -935.48)" fill="#18456d" fill-rule="evenodd"/>
            <path id="Path_147047" data-name="Path 147047" d="M539.792,991.342a8.215,8.215,0,0,1-2.177.425c-.467-.043.479,1.5,2.222,3.774.728.948.584.339.191-.607s-.207-2.638.3-2.865.148-.945-.532-.727" transform="translate(-483.434 -891.595)" fill="#18456d" fill-rule="evenodd"/>
            <path id="Path_147048" data-name="Path 147048" d="M674.347,716.509c.72,1.446,6.333,13.248,6.567,14.131s3.075,17.665,3.192,18.484a18.827,18.827,0,0,1-3.264.227c-.652-.141-4.06-15.041-4.67-16.172s-5.863-9.906-6.415-10.891-.867-5.5-.074-6.287,3.944-.937,4.663.507" transform="translate(-601.897 -643.458)" fill="#286499" fill-rule="evenodd"/>
          </g>
        </g>
        <g id="Group_57701" data-name="Group 57701" transform="translate(67.309 71.957)">
          <g id="Group_57700" data-name="Group 57700" clip-path="url(#clip-path-60)">
            <path id="Path_147049" data-name="Path 147049" d="M677.789,744.337c.859,2.364,4.276,10.437,5.286,12.229s4.12,13.459,4.414,17.662-3.189,1.791-3.558.278-6.512-21.935-7.257-23.578.259-8.954,1.116-6.592" transform="translate(-675.688 -741.009)" fill="#255e8f" fill-rule="evenodd"/>
          </g>
        </g>
        <g id="Group_57703" data-name="Group 57703" transform="translate(0 0)">
          <g id="Group_57702" data-name="Group 57702" clip-path="url(#clip-path)">
            <path id="Path_147051" data-name="Path 147051" d="M568.181,715.75c.082,1.011-1.569,15.524-1.679,16.511s-8.943,13.522-9.8,14.164c0,0-2.484-2.821-2.971-3.561s6.944-8.679,7.251-11.139,1.225-14.87,1.786-16.064,5.329-.921,5.409.09" transform="translate(-498.019 -642.969)" fill="#286499" fill-rule="evenodd"/>
          </g>
        </g>
        <g id="Group_57705" data-name="Group 57705" transform="translate(55.693 71.902)">
          <g id="Group_57704" data-name="Group 57704" clip-path="url(#clip-path-62)">
            <path id="Path_147052" data-name="Path 147052" d="M551.491,807.931c.232,3.6.126,9.069-1.721,11.786s-5.461,6.519-5.487,8.318-1.852-2.485-1.852-2.485,6-8.348,6.5-10.186,2.327-11.032,2.559-7.433" transform="translate(-543.566 -797.827)" fill="#255e8f" fill-rule="evenodd"/>
          </g>
        </g>
        <g id="Group_57707" data-name="Group 57707" transform="translate(0 0)">
          <g id="Group_57706" data-name="Group 57706" clip-path="url(#clip-path)">
            <path id="Path_147054" data-name="Path 147054" d="M707.3,593.825a3.188,3.188,0,0,1,1.9,1.427,30.434,30.434,0,0,1,1.586,4.356c.387.7-1.593,2.1-2.129,2.057s-2.26-7.972-1.363-7.839" transform="translate(-635.931 -534.096)" fill="#f8f8f8" fill-rule="evenodd"/>
            <path id="Path_147055" data-name="Path 147055" d="M715.333,623.652c.389.856.385,3.187,2.244,3.945s-1.166,2.456-1.926,1.975-.318-5.92-.318-5.92" transform="translate(-643.269 -560.924)" fill="#ededed" fill-rule="evenodd"/>
            <path id="Path_147056" data-name="Path 147056" d="M645.109,587.931c-.477-.006-2.2-.09-2.885.457-.523.419-1.332,12.823-1.084,13.581s8.025.867,8.732.654c0,0-.745-9.837-.84-10.557s-.216-3.027-.856-3.442a7.679,7.679,0,0,0-3.067-.694" transform="translate(-576.612 -528.789)" fill="#fff" fill-rule="evenodd"/>
          </g>
        </g>
        <g id="Group_57709" data-name="Group 57709" transform="translate(64.482 59.134)">
          <g id="Group_57708" data-name="Group 57708" clip-path="url(#clip-path-64)">
            <path id="Path_147057" data-name="Path 147057" d="M632.84,618.18c-3.467,10.152,3.947,11.88,7.416,11.658s-9.135,2.993-10.481-1.143c-.963-.281,2.4-11.371,3.066-10.515" transform="translate(-630.758 -615.094)" fill="#ededed" fill-rule="evenodd"/>
          </g>
        </g>
        <g id="Group_57711" data-name="Group 57711" transform="translate(0 0)">
          <g id="Group_57710" data-name="Group 57710" clip-path="url(#clip-path)">
            <path id="Path_147059" data-name="Path 147059" d="M617.157,616.389a4.794,4.794,0,0,1-.441-1.36c-.569-2.2.634-4.569,2.923-6.027s4.731-.156,5.6.513c2.407,1.845,2.012,4.12,1.719,5.514-.43,2.043-2.161,3.354-4.481,3.969a4.253,4.253,0,0,1-3.449-.863L614.538,622a2.628,2.628,0,0,0-.834-.052l-.01.829-.621.482c-.26-.018-.88-.078-.88-.078l-.1.846c-.16.116-2.361,1.922-2.361,1.922l-1.387.445s-.456-.417-.438-.543c.053-.376.232-1.465.232-1.465s6.206-5.541,9.02-7.994m7.472-4.661a1.515,1.515,0,0,1-.484,2.1,1.555,1.555,0,0,1-2.144-.4,1.515,1.515,0,0,1,.484-2.1,1.555,1.555,0,0,1,2.144.4" transform="translate(-546.761 -547.151)" fill="#ffb809" fill-rule="evenodd"/>
            <path id="Path_147060" data-name="Path 147060" d="M620.823,619.414a4.567,4.567,0,0,1-.556-1.256c-.569-2.2.634-4.569,2.923-6.027s4.731-.156,5.6.513c2.407,1.845,2.012,4.12,1.719,5.514-.43,2.044-2.161,3.354-4.481,3.969a4.253,4.253,0,0,1-3.449-.863l-4.493,3.862a2.628,2.628,0,0,0-.834-.052l-.01.829-.621.482c-.261-.017-.88-.078-.88-.078l-.1.846c-.159.116-2.361,1.922-2.361,1.922s-.852.166-1.429.237a.329.329,0,0,1-.4-.335c.053-.376.232-1.465.232-1.465s6.32-5.645,9.134-8.1m7.357-4.557a1.515,1.515,0,0,1-.484,2.1,1.555,1.555,0,0,1-2.144-.4,1.515,1.515,0,0,1,.484-2.1,1.555,1.555,0,0,1,2.144.4" transform="translate(-549.954 -549.965)" fill="#fdc63c" fill-rule="evenodd"/>
            <path id="Path_147061" data-name="Path 147061" d="M622.77,707.026l-.589.1.2-.593,7.838-6.77.679-.131-.285.691Z" transform="translate(-559.601 -629.262)" fill="#ffb809" fill-rule="evenodd"/>
            <path id="Path_147062" data-name="Path 147062" d="M622.77,707.026l-.589.1,8.716-7.494-.285.691Z" transform="translate(-559.601 -629.262)" fill="#ffa409" fill-rule="evenodd"/>
            <path id="Path_147063" data-name="Path 147063" d="M709.054,632.2a4.294,4.294,0,1,1-.386-8.547,4.294,4.294,0,0,0,.386,8.547" transform="translate(-633.363 -560.925)" fill="#ffb809" fill-rule="evenodd"/>
            <path id="Path_147064" data-name="Path 147064" d="M712.293,632.242a4.448,4.448,0,0,1-4.488-3.911,4.384,4.384,0,0,1,4.1-4.635,4.294,4.294,0,0,0,.386,8.547" transform="translate(-636.602 -560.963)" fill="#ffa409" fill-rule="evenodd"/>
            <path id="Path_147065" data-name="Path 147065" d="M605.372,647.008a7.756,7.756,0,0,0-.622,3.757c.094,1.129,3.785,5.938,4.267,6.527a5.316,5.316,0,0,1,.8,1.2c.264.454,1.321-.283,1.447-.784s-.6-.406-1.372-1.457a36.838,36.838,0,0,1-2.813-5.674c-.237-1.23.56-1.814,1.222-2.613s-2.372-2.09-2.933-.956" transform="translate(-543.902 -581.53)" fill="#fcd3c3" fill-rule="evenodd"/>
          </g>
        </g>
        <g id="Group_57713" data-name="Group 57713" transform="translate(60.824 65.032)">
          <g id="Group_57712" data-name="Group 57712" clip-path="url(#clip-path-66)">
            <path id="Path_147066" data-name="Path 147066" d="M607.131,694.782c.35.571,3.617,5.466,4.585,5.762s1.233.229,1.3-.091,1.465-.269,1.07.667-2.076,1.972-2.4,1.5-4.9-8.412-4.553-7.841" transform="translate(-606.871 -689.905)" fill="#fdc7b2" fill-rule="evenodd"/>
          </g>
        </g>
        <g id="Group_57715" data-name="Group 57715" transform="translate(0 0)">
          <g id="Group_57714" data-name="Group 57714" clip-path="url(#clip-path)">
            <path id="Path_147068" data-name="Path 147068" d="M612.7,588.1c-.368.008-2.356-.006-2.986.542a8.388,8.388,0,0,0-1.447,2.1,18.328,18.328,0,0,0-1.871,5.146,6.111,6.111,0,0,1,1.8.844,2.693,2.693,0,0,0,1.315.7s1.862-4.747,2.2-5.652,1.721-3.7.985-3.681" transform="translate(-545.405 -528.947)" fill="#fff" fill-rule="evenodd"/>
            <path id="Path_147069" data-name="Path 147069" d="M677.052,571.457a1.473,1.473,0,0,0,.258,1.135s-.369.683-.908.626a1.256,1.256,0,0,1-.95-.772s.763-1.245.652-1.612.964.19.948.623" transform="translate(-607.514 -513.312)" fill="#fcd3c3" fill-rule="evenodd"/>
          </g>
        </g>
        <g id="Group_57717" data-name="Group 57717" transform="translate(67.937 57.403)">
          <g id="Group_57716" data-name="Group 57716" clip-path="url(#clip-path-68)">
            <path id="Path_147070" data-name="Path 147070" d="M684,573.109a2.151,2.151,0,0,0,.494,1.414c.475.467.968.166.84-.374s-1.407-1.425-1.334-1.04" transform="translate(-683.14 -572.783)" fill="#fdc7b2" fill-rule="evenodd"/>
          </g>
        </g>
        <g id="Group_57719" data-name="Group 57719" transform="translate(0 0)">
          <g id="Group_57718" data-name="Group 57718" clip-path="url(#clip-path)">
            <path id="Path_147072" data-name="Path 147072" d="M679.938,560.312a3.288,3.288,0,0,1,.142-.68c.107-.3,1.187-.331,1.332-.069a4.512,4.512,0,0,1-.233,2.325c-.259.2-.806-.192-1.1-.576a.742.742,0,0,1-.123-.3,1.2,1.2,0,0,1-.566-.776c-.05-.317.329-.147.552.07" transform="translate(-611.049 -503.122)" fill="#fdd3c3" fill-rule="evenodd"/>
            <path id="Path_147073" data-name="Path 147073" d="M1127.449,782.865l-.791-17.064,14.018.067.024,17.7Z" transform="translate(-1013.338 -688.775)" fill="#ebd396" fill-rule="evenodd"/>
          </g>
        </g>
        <g id="Group_57721" data-name="Group 57721" transform="translate(127.338 77.091)">
          <g id="Group_57720" data-name="Group 57720" clip-path="url(#clip-path-70)">
            <rect id="Rectangle_20278" data-name="Rectangle 20278" width="19.75" height="14.907" transform="translate(-6.153 15.206) rotate(-67.97)" fill="url(#linear-gradient-10)"/>
          </g>
        </g>
        <g id="Group_57723" data-name="Group 57723" transform="translate(0 0)">
          <g id="Group_57722" data-name="Group 57722" clip-path="url(#clip-path)">
            <path id="Path_147075" data-name="Path 147075" d="M1318.423,891.823l.032,1.452,1.877.01.009-1.381Z" transform="translate(-1185.815 -802.122)" fill="#f3e5c2" fill-rule="evenodd"/>
            <path id="Path_147076" data-name="Path 147076" d="M1037.39,846.182l-.618-13.234,9.2.019.082,13.725Z" transform="translate(-932.493 -749.169)" fill="#efddae" fill-rule="evenodd"/>
          </g>
        </g>
        <g id="Group_57725" data-name="Group 57725" transform="translate(113.475 83.797)">
          <g id="Group_57724" data-name="Group 57724" clip-path="url(#clip-path-72)">
            <rect id="Rectangle_20280" data-name="Rectangle 20280" width="8.681" height="13.725" transform="translate(0 0)" fill="url(#linear-gradient-11)"/>
          </g>
        </g>
        <g id="Group_57727" data-name="Group 57727" transform="translate(0 0)">
          <g id="Group_57726" data-name="Group 57726" clip-path="url(#clip-path)">
            <path id="Path_147078" data-name="Path 147078" d="M1186.226,930.7l.025,1.126,1.463.008.007-1.071Z" transform="translate(-1066.914 -837.087)" fill="#f3e5c2" fill-rule="evenodd"/>
          </g>
        </g>
      </g>
    </g>
  </g>
</svg>
